<svg width="310" height="189" viewBox="0 0 310 189" fill="none" xmlns="http://www.w3.org/2000/svg">
<path fill-rule="evenodd" clip-rule="evenodd" d="M150.5 0.415002C133.589 1.905 120.935 16.029 121.567 32.71C121.812 39.187 122.593 40.099 126.556 38.53C135.122 35.139 151.011 33.407 161.625 34.707C169.05 35.616 173.013 36.47 178.018 38.237C183.189 40.063 183.874 39.258 183.857 31.375C183.82 13.664 167.894 -1.118 150.5 0.415002ZM149.269 39.041C148.669 39.213 147.211 40.467 144.394 43.233C138.393 49.126 137.825 49.232 134.871 45.016C133.066 42.44 132.502 41.998 131.029 42.007C129.719 42.014 126.755 43.173 125.836 44.037C123.466 46.263 129.521 54.157 137.119 58.746C140.233 60.627 140.529 62.077 137.939 62.76C131.704 64.403 129.543 65.778 125.695 70.55C125.04 71.362 124.41 71.83 123.57 72.13C117.501 74.298 115.248 78.335 117.569 82.88C121.761 91.085 133.569 85.546 130.5 76.815C129.433 73.78 130.698 71.312 134.247 69.502C136.585 68.309 137.172 69.229 136.401 72.875C135.421 77.505 135.402 77.5 152.72 77.5C169.857 77.5 170.108 77.424 168.904 72.63C167.919 68.71 169.153 67.931 172.476 70.377C175.341 72.486 175.836 73.834 174.867 76.879C173.179 82.18 176.308 86.871 181.5 86.821C189.425 86.745 191.282 75.509 183.805 72.869C183.156 72.64 182.144 72.284 181.556 72.078C180.699 71.778 180.193 71.317 179.004 69.755C176.344 66.262 172.957 64.077 168.685 63.101C164.661 62.181 164.679 60.878 168.75 58.417C171.667 56.654 174.685 54.064 176.647 51.64C181.162 46.062 181.309 44.263 177.372 42.758C173.982 41.463 172.83 41.733 171.075 44.237C167.582 49.219 167.18 49.193 161.464 43.605C156.671 38.92 156.373 38.754 152.75 38.778C151.306 38.787 149.74 38.906 149.269 39.041ZM136.981 82.731C135.43 84.282 135.831 85.407 140.321 92.093C145.019 99.089 147.408 100.967 151.908 101.203C157.453 101.494 160.064 99.631 165.424 91.557C168.979 86.202 169.456 85.173 169.034 83.765C168.485 81.932 169.117 82 152.493 82H137.712L136.981 82.731ZM132.556 91.168C131.076 91.763 130.967 94.294 132.125 101.107C133.195 107.403 133.199 107.806 132.216 110.168C130.298 114.775 131.374 115.75 138.375 115.75C144.712 115.75 145.065 115.523 146.739 110.38C148.208 105.865 148.108 105.436 145.218 103.866C142.369 102.319 140.362 100.238 137.235 95.591C134.222 91.114 133.765 90.682 132.556 91.168ZM170.822 91.831C170.421 92.288 169.088 94.168 167.859 96.009C165.106 100.134 163.262 102.056 160.547 103.631C157.284 105.523 157.164 105.995 158.768 110.646C160.508 115.694 160.598 115.75 166.983 115.75C174.011 115.75 175.036 114.871 173.25 110.375C172.318 108.03 172.3 106.894 173.111 102.034C174.213 95.429 174.318 94.429 174.021 93.329C173.395 91.003 172.087 90.391 170.822 91.831ZM281.505 149.809C280.237 150.475 280.258 150.166 280.254 168.832L280.25 186.288L280.981 187.019C281.691 187.73 281.781 187.75 284.217 187.75C287.857 187.75 288.437 187.078 288.485 182.803C288.517 179.972 291.157 177.213 292.794 178.3C293.089 178.496 294.803 180.44 296.603 182.62C300.921 187.851 300.539 187.606 304.53 187.708C310.657 187.864 310.64 187.633 303.877 179.003C297.883 171.353 297.956 172.037 302.614 167.25C309.103 160.581 309.185 160 303.633 160C299.563 160 299.854 159.823 292.75 166.642C288.628 170.598 288.506 170.429 288.482 160.774C288.454 149.523 288.505 149.669 284.556 149.554C282.918 149.507 281.923 149.59 281.505 149.809ZM127.625 149.986C125.751 150.753 125.677 153.573 127.512 154.344C128.566 154.788 129.382 154.587 130.128 153.701C131.693 151.841 129.834 149.082 127.625 149.986ZM176.355 151.754C174.507 152.326 174.625 151.101 174.625 169.769V186.486L175.194 187.056L175.763 187.625L185.535 187.696C196.288 187.774 198.215 187.608 201.433 186.329C207.891 183.761 209.275 176.091 204.229 170.834C202.453 168.984 202.411 168.622 203.733 166.587C207.823 160.292 204.795 153.912 196.853 152.096C194.807 151.627 177.685 151.342 176.355 151.754ZM1.25 152.075C0.00499725 152.7 -0.0200024 153.081 0.0549976 170.271L0.124997 186.21L0.730996 186.855C1.75 187.939 3.234 187.623 3.724 186.218C3.908 185.689 4 181.97 4.001 175.025C4.003 159.858 4.162 159.649 9.129 168.25C17.683 183.062 17.79 183.208 19.528 182.489C20.419 182.119 20.6 181.841 26.253 172.125C33.905 158.975 33.573 158.844 33.75 175.085L33.875 186.545L34.465 187.022C35.317 187.712 36.356 187.637 36.982 186.841C37.494 186.19 37.5 185.996 37.5 169.697V153.212L36.744 152.455C35.197 150.908 34 151.971 30.605 157.907C20.78 175.087 19.889 176.5 18.883 176.5C18.114 176.5 17.193 175.185 13.375 168.638C3.208 151.205 3.147 151.122 1.25 152.075ZM193.279 158.53C197.302 159.392 197.979 163.697 194.375 165.5C193.214 166.081 192.819 166.131 188.818 166.212L184.511 166.299L183.795 165.584C182.464 164.252 182.449 160.263 183.771 158.941L184.462 158.25H188.218C190.285 158.25 192.562 158.376 193.279 158.53ZM223.551 159.772C211.765 161.576 206.914 175.543 215.221 183.754C222.243 190.694 235.527 188.916 239.68 180.479C245.109 169.452 236.076 157.855 223.551 159.772ZM257.375 159.75C249.417 160.947 244.436 166.85 244.825 174.625C245.742 193 274.75 192.273 274.75 173.875C274.75 164.686 266.914 158.316 257.375 159.75ZM55.5 160.518C50.681 161.035 47.021 163.207 47.747 165.118C48.142 166.156 48.998 166.153 51.559 165.104C58.163 162.4 64.5 164.772 64.5 169.946C64.5 171.974 63.83 172.25 58.909 172.25C49.937 172.25 46.205 174.556 46.154 180.132C46.093 186.713 55.529 190.326 62.127 186.249C63.286 185.532 64.052 185.624 65.25 186.625C66.849 187.961 68.051 187.592 68.506 185.625C68.812 184.305 68.807 172.752 68.5 169.833C67.77 162.904 63.275 159.683 55.5 160.518ZM88.618 160.848C87.927 161.016 86.507 161.625 85.463 162.202C83.142 163.483 83.446 163.5 82 162C80.634 160.583 80.313 160.505 79.326 161.353L78.625 161.956L78.553 173.714C78.475 186.556 78.522 187.058 79.839 187.388C82.148 187.968 82.35 187.3 82.515 178.544C82.71 168.232 83.868 165.653 88.828 164.488C91.373 163.89 92.313 162.96 91.71 161.636C91.504 161.184 90.123 160.333 89.9 160.521C89.886 160.533 89.31 160.68 88.618 160.848ZM151.058 160.875C150.334 161.077 148.891 161.708 147.853 162.278C145.726 163.445 145.166 163.407 144.357 162.037C143.488 160.566 141.816 160.511 141.183 161.933C140.561 163.331 140.759 185.808 141.401 186.669C141.982 187.447 142.474 187.623 143.411 187.388C144.58 187.095 144.75 186.107 144.755 179.571C144.765 167.428 147.186 163.526 154.371 164.069C160.579 164.539 161.995 167.314 161.998 179.025C161.999 183.048 162.103 185.72 162.276 186.218C162.762 187.611 164.106 187.916 165.151 186.872L165.779 186.243L165.691 177.559C165.594 167.994 165.55 167.681 163.945 165.009C161.775 161.395 155.923 159.517 151.058 160.875ZM95.864 161.102C95.056 161.693 95.31 163.074 96.881 166.625C106.338 187.996 105.849 187.035 107.512 187.533C109.722 188.195 110.162 187.611 114.12 178.75C121.475 162.287 121.609 161.911 120.409 161.124C118.713 160.013 118.288 160.668 113.12 172.375C107.965 184.053 108.66 184.099 103.154 171.716C98.55 161.363 98.672 161.602 97.758 161.129C96.848 160.659 96.478 160.654 95.864 161.102ZM127.326 161.353L126.625 161.956L126.553 173.666C126.514 180.106 126.545 185.631 126.622 185.944C126.995 187.453 128.576 187.947 129.636 186.886L130.25 186.273V174.374C130.25 164.42 130.19 162.36 129.884 161.768C129.274 160.589 128.384 160.444 127.326 161.353ZM228.866 167.105C234.094 169.289 234.305 177.809 229.195 180.356C225.595 182.15 220.997 180.201 219.869 176.403C218.022 170.183 223.264 164.765 228.866 167.105ZM263.054 167.429C265.401 168.706 266.685 171.406 266.425 174.515C265.658 183.659 253.146 183.056 253.146 173.875C253.146 168.179 258.287 164.834 263.054 167.429ZM194.729 173.019C198.854 173.904 199.976 178.309 196.557 180.202C193.824 181.716 184.34 181.633 183.327 180.087C182.362 178.615 182.897 173.619 184.08 173.047C184.806 172.696 193.121 172.674 194.729 173.019ZM64.015 175.955C66.746 179.332 62.227 184.53 56.5 184.599C49.105 184.689 47.248 176.955 54.317 175.506C56.757 175.005 63.499 175.318 64.015 175.955Z" fill="#EEEEEF"/>
</svg>
