<svg width="335" height="44" viewBox="0 0 335 44" fill="none" xmlns="http://www.w3.org/2000/svg">
<path fill-rule="evenodd" clip-rule="evenodd" d="M305.849 1.21499C304.966 1.49699 304.079 2.45299 303.731 3.49999C303.369 4.58799 303.153 36.399 303.489 39.146C303.848 42.08 305.396 43.197 308.748 42.94C311.414 42.735 312.359 41.707 312.672 38.667C312.977 35.701 313.584 34.212 314.83 33.372C316.678 32.127 317.606 32.69 321.36 37.337C325.657 42.656 326.466 43.145 330.667 42.958C333.405 42.837 334.5 42.209 334.5 40.76C334.5 39.641 333.893 38.692 330.068 33.833C323.202 25.111 323.248 25.629 328.827 19.788C332.671 15.763 333.252 14.794 332.591 13.514C332.132 12.628 331.372 12.416 328.667 12.423C324.955 12.431 324.604 12.626 319.332 17.593C315.233 21.455 314.438 21.917 313.54 20.958C312.793 20.16 312.773 19.949 312.662 11.75C312.546 3.12599 312.539 3.07099 311.504 1.98499C310.611 1.04999 307.637 0.644993 305.849 1.21499ZM139 1.94299C137.286 2.61899 137.084 5.26499 138.683 6.09199C140.473 7.01799 142.257 5.06899 141.431 3.09099C141.066 2.21799 139.808 1.62399 139 1.94299ZM192.997 3.32899C191.163 3.56599 190.219 4.32499 189.71 5.96899C189.26 7.42399 189.259 39.131 189.709 40.419C190.567 42.877 190.69 42.906 200.333 42.971C210.695 43.041 214.144 42.79 217.417 41.73C225.388 39.148 227.833 31.032 222.534 24.746C220.617 22.472 220.547 21.823 221.918 19.075C225.593 11.709 221.685 5.19199 212.738 3.76899C209.373 3.23399 196.035 2.93699 192.997 3.32899ZM2.02501 4.42099C0.866007 5.39699 0.917005 4.53099 0.917005 23.25V40.083L1.287 40.776C2.304 42.677 4.077 42.604 4.939 40.626C5.226 39.968 5.25501 39.149 5.34501 29.333C5.44601 18.144 5.46401 17.905 6.24301 17.173C7.15201 16.319 7.99601 17.169 10.58 21.542C11.569 23.215 13.407 26.308 14.664 28.417C15.922 30.525 17.318 32.918 17.767 33.734C20.161 38.087 22.188 38.165 24.621 34C25.13 33.129 26.8 30.279 28.333 27.667C29.866 25.054 31.636 21.995 32.266 20.868C34.119 17.554 34.936 16.656 35.884 16.893C37.045 17.185 37.164 18.336 37.165 29.32C37.167 39.026 37.241 40.233 37.895 41.203C38.768 42.499 40.34 42.321 41.167 40.833L41.583 40.083L41.669 24.5C41.774 5.34399 41.779 5.43499 40.399 4.34899C38.646 2.96999 36.987 4.52699 33.667 10.667C32.596 12.648 27.651 21.248 24.768 26.146C23.035 29.09 22.043 29.927 20.78 29.51C19.699 29.153 19.671 29.11 13.111 17.833C12.285 16.412 11.365 14.869 11.068 14.404C10.77 13.938 9.84201 12.341 9.00601 10.854C6.33401 6.10099 5.78501 5.28499 4.70601 4.45799C3.88901 3.83299 2.74301 3.81699 2.02501 4.42099ZM209.395 11.257C213.848 12.165 214.772 16.636 210.868 18.388C208.815 19.309 202.15 19.491 200.676 18.665C198.48 17.435 198.445 12.725 200.622 11.454C201.721 10.812 206.671 10.701 209.395 11.257ZM242.865 12.266C225.395 15.196 225.19 39.662 242.607 42.926C251.048 44.507 258.805 40.464 261.715 32.965C262.045 32.114 262.601 30.677 262.949 29.774C263.298 28.87 263.658 28.13 263.75 28.13C263.842 28.13 264.383 29.357 264.954 30.856C267.565 37.724 270.347 40.694 275.75 42.382C288.762 46.447 300.639 36.016 297.343 23.417C294.639 13.075 281.224 8.55599 271.636 14.758C268.47 16.806 267.065 18.821 264.98 24.303C263.626 27.861 263.807 27.876 262.421 24.083C259.057 14.877 252.157 10.708 242.865 12.266ZM60.083 13.173C55.587 13.873 52.363 16.19 53.259 18.078C53.78 19.178 54.495 19.231 56.947 18.352C63.378 16.049 68.137 17.013 69.977 20.992C71.597 24.496 69.755 25.989 63.8 25.997C56.069 26.007 52.221 27.908 51.083 32.28C49.111 39.848 58.156 45.313 66.768 41.759C68.906 40.876 69.619 40.835 71.256 41.498C75.291 43.132 75.764 41.986 75.614 30.938C75.471 20.388 74.623 17.573 70.809 14.984C68.427 13.366 63.831 12.59 60.083 13.173ZM165.083 13.183C163.893 13.353 161.967 14.009 160.583 14.717C159.087 15.482 158.053 15.452 156.676 14.602C154.756 13.418 153.572 13.687 152.887 15.463C152.603 16.198 152.583 17.038 152.583 28.167V40.083L152.965 40.798C153.746 42.261 155.096 42.539 156.106 41.445C156.888 40.599 157 39.743 157 34.617C157.001 25.416 157.659 22.226 160.061 19.765C163.369 16.378 170.012 16.395 173.008 19.799C174.958 22.014 175.178 23.181 175.334 32.167C175.475 40.231 175.512 40.545 176.417 41.451C177.546 42.579 179.161 41.924 179.651 40.138C180.208 38.106 179.992 25.431 179.348 22.417C177.896 15.616 172.502 12.125 165.083 13.183ZM96.083 13.572C95.717 13.691 94.704 14.141 93.833 14.573C91.896 15.533 91.343 15.531 89.785 14.562C87.959 13.426 86.723 13.73 86.046 15.483C85.536 16.805 85.597 39.585 86.114 40.704C86.792 42.172 88.159 42.548 89.199 41.553C90.031 40.756 90.131 39.985 90.231 33.583C90.407 22.447 91.577 19.666 96.857 17.845C100.533 16.577 101.511 14.746 99.096 13.649C98.309 13.292 97.048 13.259 96.083 13.572ZM103.599 14.088C102.377 14.725 102.395 15.255 103.737 18.126C105.182 21.22 109.498 30.884 111.506 35.521C113.506 40.14 113.694 40.511 114.453 41.352C116.292 43.387 118.907 42.805 120.307 40.049C120.583 39.505 123.633 32.651 128.411 21.833C131.009 15.951 131.223 14.568 129.621 14.009C128.165 13.502 127.234 14.632 125.018 19.596C118.074 35.146 118.422 34.5 116.988 34.5C115.722 34.5 115.413 33.991 112.28 26.75C107.591 15.914 107.11 14.952 106.011 14.211C105.351 13.766 104.317 13.714 103.599 14.088ZM138.737 14.139C137.394 14.98 137.306 15.933 137.367 29.009C137.416 39.556 137.423 39.764 137.771 40.516C138.733 42.596 140.77 42.519 141.529 40.375C141.915 39.285 141.847 16.5 141.454 15.483C140.901 14.052 139.77 13.492 138.737 14.139ZM248.583 20.516C254.272 22.662 254.598 31.721 249.083 34.457C245.347 36.311 240.764 34.272 239.496 30.191C237.572 23.999 242.867 18.361 248.583 20.516ZM283.796 20.508C289.488 22.47 289.924 31.73 284.451 34.407C280.127 36.523 275.198 33.781 274.505 28.875C273.677 23.009 278.487 18.678 283.796 20.508ZM211.75 27.074C215.322 28.041 216.526 31.397 214.103 33.631C212.675 34.947 210.746 35.333 205.602 35.333C200.248 35.333 199.288 34.786 199.047 31.594C198.832 28.732 199.766 27.205 202 26.771C203.051 26.567 210.762 26.806 211.75 27.074ZM68.751 29.477C72.651 31.249 70.168 37.374 64.917 38.934C57.462 41.148 51.749 33.321 58.334 29.916C59.853 29.131 67.298 28.817 68.751 29.477Z" fill="#E0E0E2"/>
</svg>
